<svg xmlns="http://www.w3.org/2000/svg" width="18" height="18" viewBox="0 0 48 48">
  <path fill="#EA4335" d="M24 9.5c3.54 0 6.71 1.22 9.21 3.61l6.85-6.85C35.9 2.38 30.47 0 24 0 14.62 0 6.51 5.38 2.56 13.22l7.98 6.19C12.68 13.22 17.88 9.5 24 9.5z"></path>
  <path fill="#4285F4" d="M46.5 24.5c0-1.57-.14-3.08-.39-4.5H24v9h12.75c-.55 2.96-2.12 5.47-4.53 7.19l7.19 5.61C43.91 37.41 46.5 31.41 46.5 24.5z"></path>
  <path fill="#FBBC05" d="M10.54 28.41c-.48-1.44-.75-2.98-.75-4.56s.27-3.12.75-4.56l-7.98-6.19C.92 16.1 0 20.19 0 24c0 3.81.92 7.9 2.56 11.31l7.98-6.19z"></path>
  <path fill="#34A853" d="M24 48c6.48 0 11.93-2.13 15.9-5.81l-7.19-5.61C30.29 38.75 27.3 40 24 40c-6.12 0-11.32-3.72-13.46-9.03l-7.98 6.19C6.51 42.62 14.62 48 24 48z"></path>
</svg>
